<?xml version="1.0" encoding="UTF-8"?>
<svg xmlns="http://www.w3.org/2000/svg" version="1.1" viewBox="0 0 340 340">
  <defs>
    <style>
      .cls-1 {
        fill: #fff;
        opacity: .5;
      }

      .cls-2 {
        opacity: .4;
      }

      .cls-3 {
        opacity: .2;
      }

      .cls-4 {
        fill: #8c8c8f;
      }
    </style>
  </defs>
  <!-- Generator: Adobe Illustrator 28.7.10, SVG Export Plug-In . SVG Version: 1.2.0 Build 236)  -->
  <g>
    <g id="Layer_1">
      <g class="cls-2">
        <g class="cls-3">
          <rect class="cls-4" x="49.79" y="49.79" width="240.42" height="240.42" transform="translate(-70.42 170) rotate(-45)"/>
        </g>
        <path class="cls-1" d="M170,0L0,170l170,170,170-170L170,0ZM5.79,170L170,5.79l164.21,164.21-164.21,164.21L5.79,170ZM145.69,105.83l-2.5-3.24,8.9-6.87,8.84,6.87-2.51,3.23-4.28-3.33v104.85h-4.1v-104.87l-4.34,3.35ZM177.28,102.59l8.9-6.87,8.84,6.87-2.51,3.23-4.31-3.35v104.87h-4.09v-104.85l-4.32,3.33-2.5-3.24ZM162.64,66.69l-2.5-3.24,8.9-6.87,8.84,6.87-2.51,3.23-4.31-3.35v144.01h-4.09V63.35l-4.32,3.33ZM262.26,151.6v4.09c-28.47,0-51.64,23.16-51.64,51.63h-4.09c0-30.73,25-55.73,55.73-55.73ZM262.26,169.58v4.09c-18.55,0-33.65,15.09-33.65,33.65h-4.09c0-20.81,16.93-37.74,37.74-37.74ZM262.26,186.52v4.09c-9.21,0-16.71,7.49-16.71,16.71h-4.09c0-11.47,9.33-20.8,20.8-20.8ZM75.94,155.63v-4.09c30.73,0,55.73,25,55.73,55.73h-4.09c0-28.47-23.16-51.63-51.63-51.63ZM113.68,207.27h-4.09c0-18.55-15.09-33.65-33.65-33.65v-4.09c20.81,0,37.74,16.93,37.74,37.74ZM96.74,207.27h-4.09c0-9.21-7.49-16.71-16.71-16.71v-4.09c11.47,0,20.8,9.33,20.8,20.8ZM219.09,127.79l-3.44-2.21,11.88-18.53c.38-.59,1.02-.94,1.72-.94s1.35.35,1.72.94l11.88,18.53-3.45,2.21-10.16-15.84-10.16,15.84ZM99.24,116.8c0-8.73,6.94-10.7,9.37-10.7,5.46,0,8.96,2.71,9.1,2.83l-1.27,1.61-1.26,1.62s-2.6-1.96-6.58-1.96c-.05,0-5.28.17-5.28,6.6s3.45,8.45,5.28,8.45c4.33,0,6.74-1.42,6.76-1.44l2.16,3.48c-.34.21-3.43,2.05-8.92,2.05-4.51,0-9.37-3.93-9.37-12.55ZM166.95,272.13v4.15c-31.51-1.19-56.78-27.18-56.78-58.97h4.09c0,29.53,23.44,53.62,52.68,54.82ZM224.14,217.31h4.09c0,31.93-25.49,58-57.19,58.98v-4.14c29.43-.98,53.1-25.17,53.1-54.84ZM169.21,258.73c-22.84,0-41.42-18.58-41.42-41.42h4.09c0,20.58,16.75,37.33,37.33,37.33s37.33-16.75,37.33-37.33h4.09c0,22.84-18.58,41.42-41.42,41.42Z"/>
      </g>
    </g>
  </g>
</svg>